# xmcd
#
# Track frame offsets: 
#        150
#        41099
#        69593
#        93979
#        127960
#        153230
#        171789
#        191431
#        221965
#        243771
#        274288
#
# Disc length: 4102 seconds
#
# Revision: 0
# Processed by: cddbd v1.5.1PL2 Copyright (c) Steve Scherf et al.
# Submitted via: ExactAudioCopy v0.95a5
#
DISCID=9910040b
DTITLE=Czesslove - Endless Thoughts [CD 2 - Space Of Intellect]
DYEAR=1900
DGENRE=Psychedelic
TTITLE0=Subsky - "Albino" (Benz and MD Remix)
TTITLE1=Murat Uncu - "Forever More" (Alican and Soner Remix)
TTITLE2=Dousk - "Pa Dida"
TTITLE3=Quivver - "These Are The Days"
TTITLE4=Viton and Stel - "Wooden Swordz" (JDK Remix)
TTITLE5=Quivver - "Twist and Shout" (Mark mitchell Remix)
TTITLE6=Steve May - "Blend Forty-3" (Chable and May Remix)
TTITLE7=Madoka - "Distant Memeries"
TTITLE8=Ozgur Can - "Over Nothing At All"
TTITLE9=Yunus vs Subsky - "Erotic Sumo"
TTITLE10=Mavi - "A Tribute To M&M's" (Subsky's Solid Mix)
EXTD=
EXTT0=
EXTT1=
EXTT2=
EXTT3=
EXTT4=
EXTT5=
EXTT6=
EXTT7=
EXTT8=
EXTT9=
EXTT10=
PLAYORDER=
